<?xml version="1.0" standalone="no"?>
<!DOCTYPE svg PUBLIC "-//W3C//DTD SVG 20010904//EN"
 "http://www.w3.org/TR/2001/REC-SVG-20010904/DTD/svg10.dtd">
<svg version="1.0" xmlns="http://www.w3.org/2000/svg"
 width="1478.000000pt" height="1478.000000pt" viewBox="0 0 1478.000000 1478.000000"
 preserveAspectRatio="xMidYMid meet">
<metadata>
Created by potrace 1.14, written by Peter Selinger 2001-2017
</metadata>
<g transform="translate(0.000000,1478.000000) scale(0.100000,-0.100000)"
fill="#000000" stroke="none">
<path d="M7078 14775 c-2 -1 -55 -6 -118 -9 -151 -9 -234 -14 -295 -21 -74 -8
-296 -35 -325 -40 -14 -2 -47 -7 -75 -11 -27 -3 -59 -8 -70 -10 -11 -3 -36 -7
-55 -10 -19 -2 -46 -7 -60 -10 -14 -2 -38 -7 -55 -10 -16 -3 -102 -21 -190
-40 -88 -19 -171 -37 -185 -40 -89 -17 -494 -134 -640 -185 -30 -10 -75 -26
-100 -34 -25 -9 -54 -20 -65 -24 -11 -5 -87 -35 -170 -67 -82 -31 -177 -70
-210 -85 -33 -15 -107 -48 -164 -74 -597 -267 -1275 -708 -1792 -1165 -215
-191 -438 -413 -658 -655 -15 -16 -76 -88 -135 -160 -60 -71 -116 -139 -125
-151 -108 -128 -471 -647 -471 -673 0 -5 -4 -11 -8 -13 -8 -3 -112 -175 -177
-293 -133 -239 -240 -455 -332 -670 -35 -82 -69 -161 -75 -175 -46 -106 -163
-439 -220 -630 -57 -192 -154 -583 -173 -695 -3 -16 -7 -41 -10 -55 -17 -82
-57 -339 -70 -450 -4 -30 -9 -66 -11 -80 -2 -14 -6 -56 -10 -95 -3 -38 -7 -81
-9 -94 -27 -169 -27 -1017 0 -1280 2 -20 7 -67 10 -106 6 -66 29 -262 40 -332
3 -18 8 -50 11 -70 14 -95 46 -277 65 -368 12 -55 23 -109 25 -120 18 -97 112
-445 168 -620 143 -448 372 -984 562 -1315 17 -30 43 -75 57 -100 117 -209
379 -616 441 -687 6 -6 22 -28 36 -48 35 -51 219 -283 309 -390 222 -264 562
-608 796 -806 22 -19 42 -36 45 -40 18 -20 259 -213 375 -300 156 -117 520
-361 635 -426 19 -11 105 -60 190 -108 418 -238 929 -457 1420 -608 141 -44
398 -114 449 -124 14 -2 73 -15 130 -29 57 -13 117 -27 135 -30 17 -3 63 -11
101 -19 39 -7 90 -17 115 -20 25 -4 52 -9 60 -10 14 -3 128 -19 207 -30 18 -3
57 -7 85 -10 29 -3 62 -8 73 -10 11 -2 63 -7 115 -10 52 -4 106 -9 120 -11
161 -26 949 -25 1195 1 22 3 67 7 100 10 74 6 147 14 200 20 82 11 130 18 145
20 8 2 40 6 70 11 30 4 57 8 60 9 3 1 30 5 60 9 30 4 71 11 90 16 19 5 51 11
70 14 37 6 48 8 120 25 25 5 57 12 73 15 54 12 75 16 232 56 88 23 167 42 177
45 117 27 548 174 748 255 699 283 1437 722 1955 1165 50 42 101 86 115 97 14
12 59 51 100 87 240 212 500 482 764 791 197 232 465 608 643 905 88 146 108
181 200 350 124 230 276 562 363 795 18 47 38 99 46 117 8 17 14 37 14 45 0 8
4 18 9 24 4 5 25 63 46 129 21 66 49 152 62 192 61 188 172 638 197 804 3 20
8 42 10 50 3 8 7 32 10 54 3 22 14 101 25 175 11 74 23 162 27 195 3 33 8 69
10 80 2 11 7 58 10 105 3 47 7 96 10 110 24 152 24 859 -1 1130 -1 19 -6 73
-9 120 -4 47 -9 96 -11 110 -2 14 -6 52 -10 85 -7 75 -14 133 -20 165 -2 14
-7 45 -10 70 -13 95 -70 411 -91 500 -3 14 -8 36 -11 50 -6 36 -62 259 -74
295 -5 17 -25 84 -43 150 -205 721 -572 1489 -1019 2130 -50 72 -93 132 -96
135 -4 3 -22 28 -41 55 -80 116 -399 500 -516 622 -274 287 -489 488 -732 688
-13 11 -41 34 -61 51 -146 124 -566 418 -796 556 -321 193 -686 381 -910 470
-27 11 -63 26 -80 33 -129 59 -626 237 -695 250 -3 0 -36 10 -75 21 -93 28
-225 65 -250 70 -11 3 -40 9 -65 14 -25 5 -83 19 -130 30 -95 23 -264 57 -325
65 -22 4 -47 8 -55 10 -8 3 -33 7 -55 10 -22 3 -49 7 -60 10 -11 2 -47 7 -80
11 -33 3 -62 8 -65 9 -3 2 -37 6 -75 10 -39 3 -81 8 -95 10 -25 5 -63 8 -215
21 -44 3 -102 8 -130 10 -59 5 -772 13 -777 9z"/>
</g>
</svg>
